<svg width="96" height="96" viewBox="0 0 96 96" fill="none" xmlns="http://www.w3.org/2000/svg">
<path d="M37.5652 3.59917C37.5652 1.51694 35.8731 -0.190545 33.8013 0.0171463C30.1369 0.38448 26.5391 1.28696 23.1242 2.70146C18.5458 4.59789 14.3858 7.37752 10.8817 10.8817C7.37752 14.3858 4.59789 18.5458 2.70146 23.1242C1.28696 26.5391 0.38448 30.1369 0.0171463 33.8013C-0.190545 35.8731 1.51694 37.5652 3.59917 37.5652C5.68139 37.5652 7.34513 35.8708 7.60444 33.8048C7.93997 31.1315 8.63251 28.5094 9.66789 26.0098C11.1854 22.3462 13.4096 19.0175 16.2135 16.2135C19.0175 13.4096 22.3462 11.1854 26.0098 9.6679C28.5094 8.63251 31.1315 7.93997 33.8048 7.60444C35.8708 7.34513 37.5652 5.68139 37.5652 3.59917Z" fill="#E0E9FB"/>
<path d="M62.1987 0.0171463C60.1269 -0.190545 58.4348 1.51694 58.4348 3.59917C58.4348 5.68139 60.1292 7.34513 62.1952 7.60444C64.8685 7.93997 67.4906 8.63251 69.9902 9.6679C73.6538 11.1854 76.9825 13.4096 79.7865 16.2135C82.5904 19.0175 84.8146 22.3462 86.3321 26.0098C87.3675 28.5094 88.06 31.1315 88.3956 33.8048C88.6549 35.8708 90.3186 37.5652 92.4008 37.5652C94.4831 37.5652 96.1906 35.8731 95.9829 33.8013C95.6155 30.1369 94.7131 26.5391 93.2985 23.1242C91.4021 18.5458 88.6225 14.3858 85.1184 10.8817C81.6142 7.37752 77.4542 4.59789 72.8758 2.70146C69.4609 1.28696 65.8631 0.38448 62.1987 0.0171463Z" fill="#E0E9FB"/>
<path d="M62.1987 95.9828C60.1269 96.1905 58.4348 94.4831 58.4348 92.4008C58.4348 90.3186 60.1292 88.6549 62.1952 88.3956C64.8685 88.06 67.4906 87.3675 69.9902 86.3321C73.6538 84.8146 76.9825 82.5904 79.7865 79.7865C82.5904 76.9825 84.8146 73.6538 86.3321 69.9902C87.3675 67.4906 88.06 64.8685 88.3956 62.1952C88.6549 60.1292 90.3186 58.4348 92.4008 58.4348C94.4831 58.4348 96.1906 60.1269 95.9829 62.1987C95.6155 65.8631 94.7131 69.4609 93.2985 72.8758C91.4021 77.4542 88.6225 81.6142 85.1184 85.1183C81.6142 88.6225 77.4542 91.4021 72.8758 93.2985C69.4609 94.713 65.8631 95.6155 62.1987 95.9828Z" fill="#E0E9FB"/>
<path d="M33.8013 95.9828C35.8731 96.1905 37.5652 94.4831 37.5652 92.4008C37.5652 90.3186 35.8708 88.6549 33.8048 88.3956C31.1315 88.06 28.5094 87.3675 26.0098 86.3321C22.3462 84.8146 19.0175 82.5904 16.2135 79.7865C13.4096 76.9825 11.1854 73.6538 9.66789 69.9902C8.63251 67.4906 7.93997 64.8685 7.60444 62.1952C7.34513 60.1292 5.68139 58.4348 3.59917 58.4348C1.51694 58.4348 -0.190545 60.1269 0.0171463 62.1987C0.38448 65.8631 1.28696 69.4609 2.70146 72.8758C4.59789 77.4542 7.37752 81.6142 10.8817 85.1183C14.3858 88.6225 18.5458 91.4021 23.1242 93.2985C26.5391 94.713 30.1369 95.6155 33.8013 95.9828Z" fill="#E0E9FB"/>
<path fill-rule="evenodd" clip-rule="evenodd" d="M44.2104 23.3684C44.2104 21.2755 45.907 19.5789 47.9999 19.5789C50.0928 19.5789 51.7894 21.2756 51.7894 23.3684V37.2785C50.6041 36.8595 49.3286 36.6316 47.9999 36.6316C46.6712 36.6316 45.3957 36.8595 44.2104 37.2785V23.3684ZM37.2784 44.2105H23.3683C21.2755 44.2105 19.5789 45.9071 19.5789 48C19.5789 50.0929 21.2755 51.7895 23.3683 51.7895H37.2784C36.8594 50.6042 36.6315 49.3287 36.6315 48C36.6315 46.6713 36.8594 45.3958 37.2784 44.2105ZM44.2104 58.7215V72.6316C44.2104 74.7244 45.907 76.4211 47.9999 76.4211C50.0928 76.4211 51.7894 74.7245 51.7894 72.6316V58.7215C50.6041 59.1405 49.3286 59.3684 47.9999 59.3684C46.6712 59.3684 45.3957 59.1405 44.2104 58.7215ZM58.7214 51.7895H72.6315C74.7244 51.7895 76.421 50.0929 76.421 48C76.421 45.9071 74.7244 44.2105 72.6315 44.2105H58.7214C59.1404 45.3958 59.3683 46.6713 59.3683 48C59.3683 49.3287 59.1404 50.6042 58.7214 51.7895Z" fill="#A7AFBC"/>
<circle cx="48" cy="48" r="5" fill="#DFE3EC"/>
</svg>
